# xmcd
#
# Track frame offsets: 
#        150
#        21580
#        41262
#        54975
#        75225
#        88962
#        100014
#        117242
#        132817
#        152906
#        172452
#        186071
#        203271
#
# Disc length: 2965 seconds
#
# Revision: 3
# Processed by: cddbd v1.5.2PL0 Copyright (c) Steve Scherf et al.
# Submitted via: ExactAudioCopy v1.1
#
DISCID=a10b930d
DTITLE=Irma Thomas - After The Rain
DYEAR=2006
DGENRE=Soul
TTITLE0=In The Middle Of It All
TTITLE1=Flowers
TTITLE2=I Count The Tears
TTITLE3=Make Me A Pallet On Your Floor
TTITLE4=I Wish I Knew How It Would Feel To Be Free
TTITLE5=If You Knew How Much
TTITLE6=Another Man Done Gone
TTITLE7=Till I Can't Take It Anymore
TTITLE8=These Honey Dos
TTITLE9=Another Lonely Heart
TTITLE10=Soul Of A Man
TTITLE11=Stone Survivor
TTITLE12=Shelter In The Rain
EXTD=
EXTT0=
EXTT1=
EXTT2=
EXTT3=
EXTT4=
EXTT5=
EXTT6=
EXTT7=
EXTT8=
EXTT9=
EXTT10=
EXTT11=
EXTT12=
PLAYORDER=
